<svg width="283" height="283" viewBox="0 0 283 283" fill="none" xmlns="http://www.w3.org/2000/svg">
<path fill-rule="evenodd" clip-rule="evenodd" d="M141.5 258.199C205.394 258.199 257.191 208.625 257.191 147.473C257.191 86.3215 205.394 36.7481 141.5 36.7481C77.606 36.7481 25.8096 86.3215 25.8096 147.473C25.8096 208.625 77.606 258.199 141.5 258.199Z" stroke="#3AD29F" stroke-width="0.613889" stroke-dasharray="3.68 3.68"/>
<path fill-rule="evenodd" clip-rule="evenodd" d="M141.5 281.686C218.947 281.686 281.731 221.597 281.731 147.473C281.731 73.3499 218.947 13.2609 141.5 13.2609C64.0526 13.2609 1.26904 73.3499 1.26904 147.473C1.26904 221.597 64.0526 281.686 141.5 281.686Z" stroke="#3AD29F" stroke-width="0.613889" stroke-dasharray="3.68 3.68"/>
<path d="M235.353 190.231C235.357 174.606 222.936 161.544 206.681 160.081C190.426 158.618 175.679 169.234 172.639 184.587L75.416 182.063L76.4833 198.049C76.4833 198.049 62.6199 228.664 135.482 236.822V267.765H219.714V216.317C229.393 210.893 235.344 200.966 235.353 190.231Z" fill="url(#paint0_linear_25_123)"/>
<path d="M79.8218 198.72C79.8218 198.72 66.5466 228.038 136.323 235.86V265.506H216.991V186.995L78.7856 183.409L79.8218 198.72Z" fill="#BE7C5E"/>
<path d="M120.138 76.3743C115.759 82.9874 106.622 84.9745 99.6876 80.822L56.3757 53.506C49.4661 49.3152 47.3899 40.5705 51.7286 33.9334C56.1067 27.3294 65.2318 25.3433 72.1634 29.4857L115.475 56.8017C122.39 60.9876 124.474 69.7333 120.138 76.3743Z" fill="url(#paint1_linear_25_123)"/>
<path d="M117.739 74.8831C113.668 81.03 105.176 82.8772 98.7295 79.0176L58.456 53.6067C52.0334 49.7112 50.1034 41.5829 54.1361 35.4134C58.2062 29.2665 66.699 27.4193 73.1451 31.2789L113.411 56.6749C119.846 60.5685 121.78 68.7086 117.739 74.8831Z" fill="#BE7C5E"/>
<path d="M201.679 220.224C218.409 220.224 231.972 207.243 231.972 191.23C231.972 175.218 218.409 162.237 201.679 162.237C184.948 162.237 171.385 175.218 171.385 191.23C171.385 207.243 184.948 220.224 201.679 220.224Z" fill="#BE7C5E"/>
<path d="M196.225 0H80.176C77.5407 0 75.4043 2.04469 75.4043 4.56695V212.395C75.4043 214.917 77.5407 216.962 80.176 216.962H196.225C198.86 216.962 200.997 214.917 200.997 212.395V4.56695C200.997 2.04469 198.86 0 196.225 0Z" fill="url(#paint2_linear_25_123)"/>
<path d="M193.982 2.93402H82.4123C79.4779 2.93402 77.0991 5.21072 77.0991 8.01918V208.95C77.0991 211.759 79.4779 214.035 82.4123 214.035H193.982C196.916 214.035 199.295 211.759 199.295 208.95V8.01918C199.295 5.21072 196.916 2.93402 193.982 2.93402Z" fill="white"/>
<path d="M168.896 8.22797C168.165 12.8538 164.018 16.2782 159.13 16.2919H116.928C112.042 16.2764 107.897 12.8524 107.167 8.22797H84.8078C83.5767 8.22797 82.3956 8.69435 81.5248 9.52715C80.6539 10.36 80.1646 11.4899 80.1646 12.6682V204.294C80.1646 205.472 80.6518 206.602 81.522 207.436C82.3921 208.269 83.5728 208.738 84.8039 208.738H191.59C192.821 208.738 194.002 208.271 194.873 207.438C195.744 206.606 196.233 205.476 196.233 204.297V12.6719C196.233 11.4936 195.746 10.3633 194.875 9.52979C194.005 8.69628 192.825 8.22797 191.594 8.22797H168.896Z" fill="#2F56F8"/>
<path d="M151.207 10.7519H125.533C125.103 10.7519 124.754 11.0857 124.754 11.4975V11.6355C124.754 12.0473 125.103 12.3811 125.533 12.3811H151.207C151.637 12.3811 151.986 12.0473 151.986 11.6355V11.4975C151.986 11.0857 151.637 10.7519 151.207 10.7519Z" fill="#DBDBDB"/>
<path d="M157.771 12.6189C158.471 12.6189 159.04 12.0752 159.04 11.4044C159.04 10.7335 158.471 10.1898 157.771 10.1898C157.07 10.1898 156.501 10.7335 156.501 11.4044C156.501 12.0752 157.07 12.6189 157.771 12.6189Z" fill="#DBDBDB"/>
<path d="M221.26 196.345C212.469 198.291 206.435 192.804 204.401 184.393L184.2 112.601C182.19 104.157 187.681 95.7449 196.49 93.7698C205.312 91.846 214.101 97.1006 216.165 105.532L232.65 179.177C234.683 187.592 230.048 194.399 221.26 196.345Z" fill="url(#paint3_linear_25_123)"/>
<path d="M213.899 107.289C212.185 100.19 204.782 95.7641 197.364 97.4045C189.946 99.0449 185.322 106.13 187.036 113.23L205.611 190.175C207.325 197.275 214.728 201.701 222.146 200.06C229.564 198.42 234.188 191.335 232.474 184.235L213.899 107.289Z" fill="#BE7C5E"/>
<path d="M231.844 255.805H116.543V281.529H231.844V255.805Z" fill="url(#paint4_linear_25_123)"/>
<path d="M228.728 258.788H119.659V278.92H228.728V258.788Z" fill="#4D8AF0"/>
<path d="M103.326 153.39C99.0004 159.924 89.9727 161.888 83.1209 157.785L54.0737 139.797C47.2462 135.657 45.1943 127.017 49.4811 120.459C53.8066 113.925 62.8343 111.961 69.686 116.064L98.7333 134.052C105.561 138.192 107.613 146.832 103.326 153.39Z" fill="url(#paint5_linear_25_123)"/>
<path d="M96.0342 191.465C91.6702 198.06 82.5603 200.042 75.6462 195.902L57.6538 183.345C50.7637 179.169 48.6925 170.45 53.0184 163.832C57.3825 157.238 66.4923 155.256 73.4064 159.396L91.3988 171.956C98.2865 176.133 100.357 184.849 96.0342 191.465Z" fill="url(#paint6_linear_25_123)"/>
<g opacity="0.5">
<path d="M138.197 142.015C157.546 142.015 173.231 127.003 173.231 108.485C173.231 89.9661 157.546 74.9539 138.197 74.9539C118.848 74.9539 103.163 89.9661 103.163 108.485C103.163 127.003 118.848 142.015 138.197 142.015Z" fill="url(#paint7_linear_25_123)"/>
</g>
<path d="M138.197 140.043C156.408 140.043 171.171 125.914 171.171 108.485C171.171 91.0553 156.408 76.9261 138.197 76.9261C119.986 76.9261 105.223 91.0553 105.223 108.485C105.223 125.914 119.986 140.043 138.197 140.043Z" fill="#69F0AE"/>
<path d="M123.885 104.272L136.249 115.121L153.766 90.4666L159.952 95.399L136.249 124.985L118.732 106.248L123.885 104.272Z" fill="white"/>
<path d="M94.581 190.529C90.5108 196.676 82.018 198.524 75.5719 194.664L58.7909 182.973C52.3683 179.077 50.4383 170.949 54.471 164.779C58.5412 158.632 67.034 156.785 73.4801 160.645L90.2572 172.359C96.6669 176.252 98.5971 184.364 94.581 190.529Z" fill="#BE7C5E"/>
<path d="M101.729 152.402C97.6589 158.549 89.1661 160.396 82.72 156.536L55.3905 139.611C48.968 135.715 47.0379 127.587 51.0706 121.418C55.1408 115.271 63.6336 113.423 70.0797 117.283L97.4092 134.209C103.832 138.104 105.762 146.232 101.729 152.402Z" fill="#BE7C5E"/>
<path d="M110.836 115.494C106.489 122.057 97.4211 124.029 90.5379 119.908L53.7272 96.9685C46.8699 92.8082 44.8094 84.1291 49.1152 77.5413C53.462 70.9782 62.5304 69.0062 69.4136 73.1272L106.224 96.0663C113.082 100.227 115.142 108.906 110.836 115.494Z" fill="url(#paint8_linear_25_123)"/>
<path d="M108.881 114.301C104.811 120.447 96.3179 122.295 89.8718 118.435L55.3944 96.9498C48.9719 93.0544 47.0418 84.9261 51.0745 78.7566C55.1447 72.6097 63.6375 70.7625 70.0836 74.6221L104.557 96.1073C110.981 100.002 112.913 108.13 108.881 114.301Z" fill="#BE7C5E"/>
<defs>
<linearGradient id="paint0_linear_25_123" x1="8072.87" y1="10943.7" x2="8072.87" y2="160.471" gradientUnits="userSpaceOnUse">
<stop stop-color="#808080" stop-opacity="0.25"/>
<stop offset="0.54" stop-color="#808080" stop-opacity="0.12"/>
<stop offset="1" stop-color="#808080" stop-opacity="0.1"/>
</linearGradient>
<linearGradient id="paint1_linear_25_123" x1="3696.16" y1="5594.52" x2="3696.16" y2="26.9445" gradientUnits="userSpaceOnUse">
<stop stop-color="#808080" stop-opacity="0.25"/>
<stop offset="0.54" stop-color="#808080" stop-opacity="0.12"/>
<stop offset="1" stop-color="#808080" stop-opacity="0.1"/>
</linearGradient>
<linearGradient id="paint2_linear_25_123" x1="6355.02" y1="21695.8" x2="6355.02" y2="-0.37244" gradientUnits="userSpaceOnUse">
<stop stop-color="#808080" stop-opacity="0.25"/>
<stop offset="0.54" stop-color="#808080" stop-opacity="0.12"/>
<stop offset="1" stop-color="#808080" stop-opacity="0.1"/>
</linearGradient>
<linearGradient id="paint3_linear_25_123" x1="2650.47" y1="10429.4" x2="2650.47" y2="92.7956" gradientUnits="userSpaceOnUse">
<stop stop-color="#808080" stop-opacity="0.25"/>
<stop offset="0.54" stop-color="#808080" stop-opacity="0.12"/>
<stop offset="1" stop-color="#808080" stop-opacity="0.1"/>
</linearGradient>
<linearGradient id="paint4_linear_25_123" x1="5882.37" y1="2827.47" x2="5882.37" y2="255.06" gradientUnits="userSpaceOnUse">
<stop stop-color="#808080" stop-opacity="0.25"/>
<stop offset="0.54" stop-color="#808080" stop-opacity="0.12"/>
<stop offset="1" stop-color="#808080" stop-opacity="0.1"/>
</linearGradient>
<linearGradient id="paint5_linear_25_123" x1="2962.79" y1="4714.71" x2="2962.79" y2="114.21" gradientUnits="userSpaceOnUse">
<stop stop-color="#808080" stop-opacity="0.25"/>
<stop offset="0.54" stop-color="#808080" stop-opacity="0.12"/>
<stop offset="1" stop-color="#808080" stop-opacity="0.1"/>
</linearGradient>
<linearGradient id="paint6_linear_25_123" x1="2427.66" y1="4240.26" x2="2427.66" y2="156.846" gradientUnits="userSpaceOnUse">
<stop stop-color="#808080" stop-opacity="0.25"/>
<stop offset="0.54" stop-color="#808080" stop-opacity="0.12"/>
<stop offset="1" stop-color="#808080" stop-opacity="0.1"/>
</linearGradient>
<linearGradient id="paint7_linear_25_123" x1="3606.6" y1="6781.1" x2="3606.6" y2="74.581" gradientUnits="userSpaceOnUse">
<stop stop-color="#808080" stop-opacity="0.25"/>
<stop offset="0.54" stop-color="#808080" stop-opacity="0.12"/>
<stop offset="1" stop-color="#808080" stop-opacity="0.1"/>
</linearGradient>
<linearGradient id="paint8_linear_25_123" x1="3357.62" y1="5180.87" x2="3357.62" y2="72.2262" gradientUnits="userSpaceOnUse">
<stop stop-color="#808080" stop-opacity="0.25"/>
<stop offset="0.54" stop-color="#808080" stop-opacity="0.12"/>
<stop offset="1" stop-color="#808080" stop-opacity="0.1"/>
</linearGradient>
</defs>
</svg>
